<svg width="36" height="36" viewBox="0 0 36 36" fill="none" xmlns="http://www.w3.org/2000/svg">
<path d="M23.0955 35.0646C32.5201 32.2496 37.8783 22.3274 35.0633 12.9028C32.2483 3.47815 22.3262 -1.88004 12.9015 0.934943C3.47686 3.74993 -1.88134 13.6721 0.933648 23.0968C3.74863 32.5214 13.6708 37.8796 23.0955 35.0646Z" fill="#4846B4"/>
<path d="M17.9581 33.2911C20.0494 33.2924 22.113 32.8127 23.9893 31.8891C25.8656 30.9655 27.5043 29.6227 28.7786 27.9645C27.583 26.1781 25.9696 24.7103 24.0785 23.6883C22.1873 22.6663 20.0754 22.121 17.9259 22.0997C15.7764 22.0783 13.6541 22.5815 11.743 23.5657C9.83191 24.5499 8.1897 25.9854 6.95874 27.7476C8.22864 29.4699 9.88601 30.8691 11.7968 31.8321C13.7077 32.7951 15.8183 33.2949 17.9581 33.2911Z" fill="white" stroke="white" stroke-width="0.524413" stroke-miterlimit="10"/>
<path d="M18.0001 23.2771C21.9694 23.2771 25.1871 20.0593 25.1871 16.09C25.1871 12.1207 21.9694 8.90295 18.0001 8.90295C14.0307 8.90295 10.813 12.1207 10.813 16.09C10.813 20.0593 14.0307 23.2771 18.0001 23.2771Z" fill="white" stroke="white" stroke-width="0.524413" stroke-miterlimit="10"/>
</svg>
